<?xml version="1.0" encoding="utf-8"?>
<!-- Generator: Adobe Illustrator 17.1.0, SVG Export Plug-In . SVG Version: 6.00 Build 0)  -->
<!DOCTYPE svg PUBLIC "-//W3C//DTD SVG 1.1//EN" "http://www.w3.org/Graphics/SVG/1.1/DTD/svg11.dtd">
<svg version="1.1" id="Layer_1" xmlns="http://www.w3.org/2000/svg" xmlns:xlink="http://www.w3.org/1999/xlink" x="0px" y="0px"
	 viewBox="0 0 27.2 23.3" enable-background="new 0 0 27.2 23.3" xml:space="preserve">
<g>
	<path d="M13.6,19.4c-0.7,0-1.5,0-2.2-0.1c-2,1.8-4.4,3-7,3.7c-0.5,0.2-1.1,0.3-1.7,0.3c-0.3,0-0.7-0.2-0.7-0.6c0,0,0,0,0,0
		c-0.1-0.4,0.2-0.6,0.4-0.9c1-1.1,2-2,2.8-4.5C2,15.6,0,12.8,0,9.7C0,4.4,6.1,0,13.6,0s13.6,4.3,13.6,9.7S21.1,19.4,13.6,19.4z"/>
</g>
</svg>
