<?xml version="1.0" encoding="utf-8"?>
<!-- Generator: Adobe Illustrator 17.1.0, SVG Export Plug-In . SVG Version: 6.00 Build 0)  -->
<!DOCTYPE svg PUBLIC "-//W3C//DTD SVG 1.1//EN" "http://www.w3.org/Graphics/SVG/1.1/DTD/svg11.dtd">
<svg version="1.1" id="Layer_1" xmlns="http://www.w3.org/2000/svg" xmlns:xlink="http://www.w3.org/1999/xlink" x="0px" y="0px"
	 viewBox="0 0 27.1 26.3" enable-background="new 0 0 27.1 26.3" xml:space="preserve">
<path fill="none" d="M17.3,19.6v1c0,0.2,0.2,0.4,0.4,0.4h0.9c0.2,0,0.4-0.2,0.4-0.4v-1.8h1.8c0.2,0,0.4-0.2,0.4-0.4v-0.9
	c0-0.2-0.2-0.4-0.4-0.4h-1.8v-1.8c0,0,0,0,0,0v4.3H17.3z"/>
<path fill="#FFFFFF" d="M18.9,15.3L18.9,15.3c-0.3,0-0.5,0.2-0.5,0.4v1.8h-1.8c-0.2,0-0.4,0.2-0.4,0.4v0.9c0,0.2,0.2,0.4,0.4,0.4
	h1.6c0.5-0.6,0.8-1.5,0.8-2.4C19,16.4,18.9,15.9,18.9,15.3z"/>
<g>
	<path d="M20.5,13.9c-0.7-1.8-2.1-3.2-4.4-3.2c-0.5,0-2.5,2.1-5.4,2.1c-3,0-5-2.1-5.4-2.1C0.8,10.7,0,16,0,19.4
		c0,2.5,1.6,3.9,4.1,3.9h11c-0.3-0.7-0.4-1.5-0.4-2.4C14.6,17.4,17.1,14.5,20.5,13.9z"/>
	<circle cx="10.7" cy="5.8" r="5.8"/>
	<path d="M21.7,15.6c-0.2,0-0.5,0-0.7,0.1c-2.6,0.3-4.6,2.6-4.6,5.3c0,0.9,0.2,1.7,0.6,2.4c0.9,1.8,2.7,3,4.8,3c3,0,5.4-2.4,5.4-5.4
		S24.7,15.6,21.7,15.6z M24.8,21.4c0,0.2-0.2,0.4-0.4,0.4h-1.8v1.8c0,0.2-0.2,0.4-0.4,0.4h-0.9c-0.2,0-0.4-0.2-0.4-0.4v-1v-0.7h-0.2
		H19c-0.2,0-0.4-0.2-0.4-0.4v-0.9c0-0.2,0.2-0.4,0.4-0.4h1.8v-1.8c0-0.2,0.2-0.4,0.4-0.4h0h0.8c0.2,0,0.4,0.2,0.4,0.4c0,0,0,0,0,0
		v1.8h1.8c0.2,0,0.4,0.2,0.4,0.4V21.4z"/>
</g>
</svg>
