<?xml version="1.0" encoding="utf-8"?>
<!-- Generator: Adobe Illustrator 17.1.0, SVG Export Plug-In . SVG Version: 6.00 Build 0)  -->
<!DOCTYPE svg PUBLIC "-//W3C//DTD SVG 1.1//EN" "http://www.w3.org/Graphics/SVG/1.1/DTD/svg11.dtd">
<svg version="1.1" id="Layer_1" xmlns="http://www.w3.org/2000/svg" xmlns:xlink="http://www.w3.org/1999/xlink" x="0px" y="0px"
	 viewBox="0 0 25.3 25.3" enable-background="new 0 0 25.3 25.3" xml:space="preserve">
<g>
	<path d="M23.3,25.3c-0.5,0-1-0.2-1.4-0.6l-5.2-5.2c-1.8,1.2-3.9,1.9-6.1,1.9C4.8,21.4,0,16.6,0,10.7S4.8,0,10.7,0
		s10.7,4.8,10.7,10.7c0,2.2-0.7,4.3-1.9,6.1l5.2,5.2c0.4,0.3,0.6,0.9,0.6,1.4C25.3,24.4,24.4,25.3,23.3,25.3z M10.7,3.9
		c-3.8,0-6.8,3.1-6.8,6.8s3.1,6.8,6.8,6.8s6.8-3.1,6.8-6.8S14.4,3.9,10.7,3.9z"/>
</g>
</svg>
