<?xml version="1.0" encoding="utf-8"?>
<!-- Generator: Adobe Illustrator 17.1.0, SVG Export Plug-In . SVG Version: 6.00 Build 0)  -->
<!DOCTYPE svg PUBLIC "-//W3C//DTD SVG 1.1//EN" "http://www.w3.org/Graphics/SVG/1.1/DTD/svg11.dtd">
<svg version="1.1" id="Layer_1" xmlns="http://www.w3.org/2000/svg" xmlns:xlink="http://www.w3.org/1999/xlink" x="0px" y="0px"
	 viewBox="0 0 23.3 23.3" enable-background="new 0 0 23.3 23.3" xml:space="preserve">
<g>
	<path d="M23.3,13.4c0,0.2-0.2,0.5-0.4,0.5l-2.8,0.4c-0.2,0.5-0.3,0.9-0.6,1.4c0.5,0.7,1.1,1.4,1.6,2.1c0.1,0.1,0.2,0.2,0.2,0.4
		c0,0.1,0,0.2-0.1,0.3c-0.4,0.5-2.4,2.7-2.9,2.7c-0.1,0-0.3-0.1-0.4-0.1l-2.1-1.6c-0.4,0.2-0.9,0.4-1.4,0.6
		c-0.1,0.9-0.2,1.9-0.4,2.8c-0.1,0.2-0.3,0.4-0.5,0.4H10c-0.3,0-0.5-0.2-0.5-0.5L9,20.1c-0.5-0.2-0.9-0.3-1.4-0.6l-2.1,1.6
		c-0.1,0.1-0.2,0.1-0.4,0.1s-0.3-0.1-0.4-0.2c-0.8-0.7-1.9-1.7-2.5-2.6c-0.1-0.1-0.1-0.2-0.1-0.3c0-0.1,0-0.2,0.1-0.4
		c0.5-0.7,1.1-1.4,1.6-2.1c-0.3-0.5-0.5-1-0.6-1.5l-2.8-0.4c-0.3,0-0.4-0.3-0.4-0.5V9.9c0-0.2,0.2-0.5,0.4-0.5L3.2,9
		C3.4,8.5,3.6,8,3.8,7.6C3.3,6.8,2.8,6.2,2.2,5.5C2.1,5.4,2,5.3,2,5.1C2,5,2.1,4.9,2.2,4.8C2.6,4.3,4.6,2,5.1,2
		c0.1,0,0.3,0.1,0.4,0.2l2.1,1.6C8,3.6,8.5,3.4,9,3.2c0.1-0.9,0.2-1.9,0.4-2.8C9.5,0.2,9.7,0,10,0h3.4c0.3,0,0.5,0.2,0.5,0.5
		l0.4,2.8c0.5,0.2,0.9,0.3,1.4,0.6l2.2-1.6C17.9,2.1,18.1,2,18.2,2s0.3,0.1,0.4,0.2c0.8,0.7,1.9,1.7,2.5,2.6
		c0.1,0.1,0.1,0.2,0.1,0.3c0,0.1,0,0.2-0.1,0.3c-0.5,0.7-1.1,1.4-1.6,2.1C19.7,8,20,8.5,20.1,9l2.8,0.4c0.3,0,0.4,0.3,0.4,0.5V13.4z
		 M11.7,7.8c-2.1,0-3.9,1.7-3.9,3.9s1.7,3.9,3.9,3.9s3.9-1.7,3.9-3.9S13.8,7.8,11.7,7.8z"/>
</g>
</svg>
