<?xml version="1.0" encoding="utf-8"?>
<!-- Generator: Adobe Illustrator 17.1.0, SVG Export Plug-In . SVG Version: 6.00 Build 0)  -->
<!DOCTYPE svg PUBLIC "-//W3C//DTD SVG 1.1//EN" "http://www.w3.org/Graphics/SVG/1.1/DTD/svg11.dtd">
<svg version="1.1" id="Layer_1" xmlns="http://www.w3.org/2000/svg" xmlns:xlink="http://www.w3.org/1999/xlink" x="0px" y="0px"
	 viewBox="0 0 23.5 18" enable-background="new 0 0 23.5 18" xml:space="preserve">
<g>
	<path d="M23.1,4.6l-11,11l-2.1,2.1C9.8,17.9,9.4,18,9,18s-0.8-0.2-1-0.4l-2.1-2.1l-5.5-5.5C0.2,9.8,0,9.4,0,9s0.2-0.8,0.4-1
		l2.1-2.1c0.3-0.3,0.7-0.4,1-0.4c0.4,0,0.8,0.2,1,0.4L9,10.4l10-10C19.3,0.2,19.6,0,20,0c0.4,0,0.8,0.2,1,0.4l2.1,2.1
		c0.3,0.3,0.4,0.7,0.4,1S23.4,4.3,23.1,4.6z"/>
</g>
</svg>
