<?xml version="1.0" encoding="utf-8"?>
<!-- Generator: Adobe Illustrator 17.1.0, SVG Export Plug-In . SVG Version: 6.00 Build 0)  -->
<!DOCTYPE svg PUBLIC "-//W3C//DTD SVG 1.1//EN" "http://www.w3.org/Graphics/SVG/1.1/DTD/svg11.dtd">
<svg version="1.1" id="Layer_1" xmlns="http://www.w3.org/2000/svg" xmlns:xlink="http://www.w3.org/1999/xlink" x="0px" y="0px"
	 viewBox="0 0 30.8 24.4" enable-background="new 0 0 30.8 24.4" xml:space="preserve">
<g>
	<path fill="none" d="M20.3,10.4L17,2.9H6.3l-3.2,7.5c0,0.1,0,0.2-0.1,0.2h4.8l1.4,2.9h4.9l1.4-2.9h4.8
		C20.3,10.6,20.3,10.5,20.3,10.4z"/>
	<path d="M23.3,12.2v-1c0-0.5-0.2-1.4-0.4-1.9l-3.6-8.4C19.1,0.4,18.5,0,18,0H5.3C4.8,0,4.2,0.4,4,0.9L0.4,9.3
		C0.2,9.8,0,10.6,0,11.1v7.3c0,0.5,0.4,1,1,1h17.4c0-0.1,0-0.3,0-0.4C18.3,15.8,20.4,13.1,23.3,12.2z M14.1,13.6H9.2l-1.4-2.9H3
		c0-0.1,0-0.2,0.1-0.2l3.2-7.5H17l3.2,7.5c0,0.1,0,0.2,0.1,0.2h-4.8L14.1,13.6z"/>
	<path fill="#FFFFFF" d="M28.2,18.1h-1.8v-1.8c0-0.2-0.2-0.4-0.4-0.4h-0.9c-0.2,0-0.4,0.2-0.4,0.4v1.8h-1.8c-0.2,0-0.4,0.2-0.4,0.4
		v0.9c0,0.2,0.2,0.4,0.4,0.4h1.8v1.8c0,0.2,0.2,0.4,0.4,0.4h0.9c0.2,0,0.4-0.2,0.4-0.4v-1.8h1.8c0.2,0,0.4-0.2,0.4-0.4v-0.9
		C28.6,18.3,28.4,18.1,28.2,18.1z"/>
	<path fill="#FFFFFF" d="M25.5,24.4c-3,0-5.4-2.4-5.4-5.4s2.4-5.4,5.4-5.4c3,0,5.4,2.4,5.4,5.4S28.5,24.4,25.5,24.4z"/>
	<path d="M25.5,13.7c-3,0-5.4,2.4-5.4,5.4s2.4,5.4,5.4,5.4c3,0,5.4-2.4,5.4-5.4S28.5,13.7,25.5,13.7z M28.6,19.5
		c0,0.2-0.2,0.4-0.4,0.4h-1.8v1.8c0,0.2-0.2,0.4-0.4,0.4h-0.9c-0.2,0-0.4-0.2-0.4-0.4v-1.8h-1.8c-0.2,0-0.4-0.2-0.4-0.4v-0.9
		c0-0.2,0.2-0.4,0.4-0.4h1.8v-1.8c0-0.2,0.2-0.4,0.4-0.4h0.9c0.2,0,0.4,0.2,0.4,0.4v1.8h1.8c0.2,0,0.4,0.2,0.4,0.4V19.5z"/>
</g>
</svg>
