<?xml version="1.0" encoding="utf-8"?>
<!-- Generator: Adobe Illustrator 17.1.0, SVG Export Plug-In . SVG Version: 6.00 Build 0)  -->
<!DOCTYPE svg PUBLIC "-//W3C//DTD SVG 1.1//EN" "http://www.w3.org/Graphics/SVG/1.1/DTD/svg11.dtd">
<svg version="1.1" id="Layer_1" xmlns="http://www.w3.org/2000/svg" xmlns:xlink="http://www.w3.org/1999/xlink" x="0px" y="0px"
	 viewBox="0 0 30.6 26.3" enable-background="new 0 0 30.6 26.3" xml:space="preserve">
<g>
	<path d="M25.3,13.7L25.3,13.7l0-6.4c0-1.9-1.5-3.4-3.4-3.4H11.7V3.4c0-1.9-1.5-3.4-3.4-3.4H3.4C1.5,0,0,1.5,0,3.4V18
		c0,1.9,1.5,3.4,3.4,3.4h14.7c0-0.1,0-0.3,0-0.4C18.1,17,21.3,13.7,25.3,13.7z"/>
	<path fill="#FFFFFF" d="M27.9,20.1h-1.8v-1.8c0-0.2-0.2-0.4-0.4-0.4h-0.9c-0.2,0-0.4,0.2-0.4,0.4v1.8h-1.8c-0.2,0-0.4,0.2-0.4,0.4
		v0.9c0,0.2,0.2,0.4,0.4,0.4h1.8v1.8c0,0.2,0.2,0.4,0.4,0.4h0.9c0.2,0,0.4-0.2,0.4-0.4v-1.8h1.8c0.2,0,0.4-0.2,0.4-0.4v-0.9
		C28.4,20.3,28.2,20.1,27.9,20.1z"/>
	<path fill="#FFFFFF" d="M25.3,26.3c-3,0-5.4-2.4-5.4-5.4s2.4-5.4,5.4-5.4c3,0,5.4,2.4,5.4,5.4S28.2,26.3,25.3,26.3z"/>
	<path d="M25.3,15.6c-3,0-5.4,2.4-5.4,5.4s2.4,5.4,5.4,5.4c3,0,5.4-2.4,5.4-5.4S28.2,15.6,25.3,15.6z M28.4,21.4
		c0,0.2-0.2,0.4-0.4,0.4h-1.8v1.8c0,0.2-0.2,0.4-0.4,0.4h-0.9c-0.2,0-0.4-0.2-0.4-0.4v-1.8h-1.8c-0.2,0-0.4-0.2-0.4-0.4v-0.9
		c0-0.2,0.2-0.4,0.4-0.4h1.8v-1.8c0-0.2,0.2-0.4,0.4-0.4h0.9c0.2,0,0.4,0.2,0.4,0.4v1.8h1.8c0.2,0,0.4,0.2,0.4,0.4V21.4z"/>
</g>
</svg>
