<?xml version="1.0" encoding="utf-8"?>
<!-- Generator: Adobe Illustrator 17.1.0, SVG Export Plug-In . SVG Version: 6.00 Build 0)  -->
<!DOCTYPE svg PUBLIC "-//W3C//DTD SVG 1.1//EN" "http://www.w3.org/Graphics/SVG/1.1/DTD/svg11.dtd">
<svg version="1.1" id="Layer_1" xmlns="http://www.w3.org/2000/svg" xmlns:xlink="http://www.w3.org/1999/xlink" x="0px" y="0px"
	 viewBox="0 0 28.6 29.8" enable-background="new 0 0 28.6 29.8" xml:space="preserve">
<g>
	<path d="M22.3,7.2L16.1,1c-0.2-0.2-0.3-0.3-0.5-0.4v7.2h7.2C22.6,7.6,22.4,7.4,22.3,7.2z"/>
	<path d="M23.3,17.3C23.3,17.3,23.3,17.3,23.3,17.3l0-7.6h-8.3c-0.8,0-1.5-0.7-1.5-1.5V0H1.5C0.7,0,0,0.7,0,1.5v24.3
		c0,0.8,0.7,1.5,1.5,1.5h15.1c-0.3-0.8-0.5-1.8-0.5-2.7C16.1,20.5,19.3,17.3,23.3,17.3z"/>
	<path fill="#FFFFFF" d="M23.3,29.8c-3,0-5.4-2.4-5.4-5.4s2.4-5.4,5.4-5.4s5.3,2.4,5.3,5.4S26.2,29.8,23.3,29.8z"/>
	<path fill="#FFFFFF" d="M26,23.6h-1.8v-1.8c0-0.2-0.2-0.4-0.4-0.4h-0.9c-0.2,0-0.4,0.2-0.4,0.4v1.8h-1.8c-0.2,0-0.4,0.2-0.4,0.4
		v0.9c0,0.2,0.2,0.4,0.4,0.4h1.8v1.8c0,0.2,0.2,0.4,0.4,0.4h0.9c0.2,0,0.4-0.2,0.4-0.4v-1.8H26c0.2,0,0.4-0.2,0.4-0.4V24
		C26.4,23.8,26.2,23.6,26,23.6z"/>
	<path d="M23.3,19.1c-3,0-5.4,2.4-5.4,5.4s2.4,5.4,5.4,5.4s5.3-2.4,5.3-5.4S26.2,19.1,23.3,19.1z M26.4,24.9c0,0.2-0.2,0.4-0.4,0.4
		h-1.8v1.8c0,0.2-0.2,0.4-0.4,0.4h-0.9c-0.2,0-0.4-0.2-0.4-0.4v-1.8h-1.8c-0.2,0-0.4-0.2-0.4-0.4V24c0-0.2,0.2-0.4,0.4-0.4h1.8v-1.8
		c0-0.2,0.2-0.4,0.4-0.4h0.9c0.2,0,0.4,0.2,0.4,0.4v1.8H26c0.2,0,0.4,0.2,0.4,0.4V24.9z"/>
</g>
</svg>
