<?xml version="1.0" encoding="utf-8"?>
<!-- Generator: Adobe Illustrator 17.1.0, SVG Export Plug-In . SVG Version: 6.00 Build 0)  -->
<!DOCTYPE svg PUBLIC "-//W3C//DTD SVG 1.1//EN" "http://www.w3.org/Graphics/SVG/1.1/DTD/svg11.dtd">
<svg version="1.1" id="Layer_1" xmlns="http://www.w3.org/2000/svg" xmlns:xlink="http://www.w3.org/1999/xlink" x="0px" y="0px"
	 viewBox="0 0 29.6 26.3" enable-background="new 0 0 29.6 26.3" xml:space="preserve">
<g>
	<path fill="none" d="M14.6,9.7h-3.9c-0.5,0-1,0.4-1,1s0.4,1,1,1h3.9c0.5,0,1-0.4,1-1S15.1,9.7,14.6,9.7z"/>
	<path d="M24.3,5.8c0.5,0,1-0.4,1-1V1c0-0.5-0.4-1-1-1H1C0.4,0,0,0.4,0,1v3.9c0,0.5,0.4,1,1,1H24.3z"/>
	<path d="M24.3,13.7C24.3,13.7,24.3,13.7,24.3,13.7l0-6c0-0.5-0.4-1-1-1H1.9c-0.5,0-1,0.4-1,1v14.6c0,0.5,0.4,1,1,1h15.6
		c-0.3-0.7-0.4-1.5-0.4-2.4C17.1,17,20.3,13.7,24.3,13.7z M14.6,11.7h-3.9c-0.5,0-1-0.4-1-1s0.4-1,1-1h3.9c0.5,0,1,0.4,1,1
		S15.1,11.7,14.6,11.7z"/>
	<path d="M24.3,15.6c-3,0-5.4,2.4-5.4,5.4s2.4,5.4,5.4,5.4s5.4-2.4,5.4-5.4S27.2,15.6,24.3,15.6z M27.4,21.4c0,0.2-0.2,0.4-0.4,0.4
		h-1.8v1.8c0,0.2-0.2,0.4-0.4,0.4h-0.9c-0.2,0-0.4-0.2-0.4-0.4v-1.8h-1.8c-0.2,0-0.4-0.2-0.4-0.4v-0.9c0-0.2,0.2-0.4,0.4-0.4h1.8
		v-1.8c0-0.2,0.2-0.4,0.4-0.4h0.9c0.2,0,0.4,0.2,0.4,0.4v1.8H27c0.2,0,0.4,0.2,0.4,0.4V21.4z"/>
</g>
</svg>
