<?xml version="1.0" encoding="utf-8"?>
<!-- Generator: Adobe Illustrator 17.1.0, SVG Export Plug-In . SVG Version: 6.00 Build 0)  -->
<!DOCTYPE svg PUBLIC "-//W3C//DTD SVG 1.1//EN" "http://www.w3.org/Graphics/SVG/1.1/DTD/svg11.dtd">
<svg version="1.1" id="Layer_1" xmlns="http://www.w3.org/2000/svg" xmlns:xlink="http://www.w3.org/1999/xlink" x="0px" y="0px"
	 viewBox="0 0 33.2 26.3" enable-background="new 0 0 33.2 26.3" xml:space="preserve">
<g>
	<path fill="none" d="M24.8,5.8H2.4c-0.3,0-0.5,0.2-0.5,0.5V19c0,0.3,0.2,0.5,0.5,0.5h18.4c0.1-0.7,0.4-1.3,0.8-1.9H8.3
		c-0.3,0-0.5-0.2-0.5-0.5v-1c0-0.3,0.2-0.5,0.5-0.5h14.6c0.1,0,0.1,0,0.2,0.1c0.7-0.6,1.4-1.1,2.3-1.4V6.3C25.3,6.1,25,5.8,24.8,5.8
		z M5.8,17c0,0.3-0.2,0.5-0.5,0.5h-1c-0.3,0-0.5-0.2-0.5-0.5v-1c0-0.3,0.2-0.5,0.5-0.5h1c0.3,0,0.5,0.2,0.5,0.5V17z M5.8,13.1
		c0,0.3-0.2,0.5-0.5,0.5h-1c-0.3,0-0.5-0.2-0.5-0.5v-1c0-0.3,0.2-0.5,0.5-0.5h1c0.3,0,0.5,0.2,0.5,0.5V13.1z M5.8,9.2
		c0,0.3-0.2,0.5-0.5,0.5h-1c-0.3,0-0.5-0.2-0.5-0.5v-1c0-0.3,0.2-0.5,0.5-0.5h1c0.3,0,0.5,0.2,0.5,0.5V9.2z M23.3,13.1
		c0,0.3-0.2,0.5-0.5,0.5H8.3c-0.3,0-0.5-0.2-0.5-0.5v-1c0-0.3,0.2-0.5,0.5-0.5h14.6c0.3,0,0.5,0.2,0.5,0.5V13.1z M23.3,9.2
		c0,0.3-0.2,0.5-0.5,0.5H8.3C8,9.7,7.8,9.5,7.8,9.2v-1C7.8,8,8,7.8,8.3,7.8h14.6c0.3,0,0.5,0.2,0.5,0.5V9.2z"/>
	<path d="M22.8,11.7H8.3c-0.3,0-0.5,0.2-0.5,0.5v1c0,0.3,0.2,0.5,0.5,0.5h14.6c0.3,0,0.5-0.2,0.5-0.5v-1
		C23.3,11.9,23.1,11.7,22.8,11.7z"/>
	<path d="M22.8,7.8H8.3C8,7.8,7.8,8,7.8,8.3v1c0,0.3,0.2,0.5,0.5,0.5h14.6c0.3,0,0.5-0.2,0.5-0.5v-1C23.3,8,23.1,7.8,22.8,7.8z"/>
	<path d="M5.3,7.8h-1C4.1,7.8,3.9,8,3.9,8.3v1c0,0.3,0.2,0.5,0.5,0.5h1c0.3,0,0.5-0.2,0.5-0.5v-1C5.8,8,5.6,7.8,5.3,7.8z"/>
	<path d="M8.3,15.6c-0.3,0-0.5,0.2-0.5,0.5v1c0,0.3,0.2,0.5,0.5,0.5h13.3c0.4-0.7,0.9-1.3,1.5-1.9c-0.1,0-0.1-0.1-0.2-0.1H8.3z"/>
	<path d="M20.8,19.4H2.4c-0.3,0-0.5-0.2-0.5-0.5V6.3c0-0.3,0.2-0.5,0.5-0.5h22.4c0.3,0,0.5,0.2,0.5,0.5v7.9c0.6-0.2,1.3-0.4,1.9-0.4
		V2.4c0-1.3-1.1-2.4-2.4-2.4H2.4C1.1,0,0,1.1,0,2.4V19c0,1.3,1.1,2.4,2.4,2.4h18.2c0-0.1,0-0.3,0-0.4C20.6,20.4,20.7,19.9,20.8,19.4
		z"/>
	<path d="M5.3,15.6h-1c-0.3,0-0.5,0.2-0.5,0.5v1c0,0.3,0.2,0.5,0.5,0.5h1c0.3,0,0.5-0.2,0.5-0.5v-1C5.8,15.8,5.6,15.6,5.3,15.6z"/>
	<path d="M5.3,11.7h-1c-0.3,0-0.5,0.2-0.5,0.5v1c0,0.3,0.2,0.5,0.5,0.5h1c0.3,0,0.5-0.2,0.5-0.5v-1C5.8,11.9,5.6,11.7,5.3,11.7z"/>
	<path d="M27.8,15.6c-3,0-5.4,2.4-5.4,5.4s2.4,5.4,5.4,5.4s5.4-2.4,5.4-5.4S30.8,15.6,27.8,15.6z M31,21.4c0,0.2-0.2,0.4-0.4,0.4
		h-1.8v1.8c0,0.2-0.2,0.4-0.4,0.4h-0.9c-0.2,0-0.4-0.2-0.4-0.4v-1.8h-1.8c-0.2,0-0.4-0.2-0.4-0.4v-0.9c0-0.2,0.2-0.4,0.4-0.4h1.8
		v-1.8c0-0.2,0.2-0.4,0.4-0.4h0.9c0.2,0,0.4,0.2,0.4,0.4v1.8h1.8c0.2,0,0.4,0.2,0.4,0.4V21.4z"/>
</g>
</svg>
