<?xml version="1.0" encoding="utf-8"?>
<!-- Generator: Adobe Illustrator 17.1.0, SVG Export Plug-In . SVG Version: 6.00 Build 0)  -->
<!DOCTYPE svg PUBLIC "-//W3C//DTD SVG 1.1//EN" "http://www.w3.org/Graphics/SVG/1.1/DTD/svg11.dtd">
<svg version="1.1" id="Layer_1" xmlns="http://www.w3.org/2000/svg" xmlns:xlink="http://www.w3.org/1999/xlink" x="0px" y="0px"
	 viewBox="0 0 23.3 23.3" enable-background="new 0 0 23.3 23.3" xml:space="preserve">
<g>
	<path d="M23.3,19c0,2.4-2,4.4-4.4,4.4H4.4C2,23.3,0,21.4,0,19V4.4C0,2,2,0,4.4,0H19c2.4,0,4.4,2,4.4,4.4V19z M19.7,8.5
		c0.4-0.4,0.4-1,0-1.4l-1.5-1.5c-0.4-0.4-1-0.4-1.4,0l-7.1,7.1L6.5,9.4c-0.4-0.4-1-0.4-1.4,0L3.6,11c-0.4,0.4-0.4,1,0,1.4L9,17.8
		c0.4,0.4,1,0.4,1.4,0L19.7,8.5z"/>
</g>
</svg>
