<?xml version="1.0" encoding="utf-8"?>
<!-- Generator: Adobe Illustrator 17.1.0, SVG Export Plug-In . SVG Version: 6.00 Build 0)  -->
<!DOCTYPE svg PUBLIC "-//W3C//DTD SVG 1.1//EN" "http://www.w3.org/Graphics/SVG/1.1/DTD/svg11.dtd">
<svg version="1.1" id="Layer_1" xmlns="http://www.w3.org/2000/svg" xmlns:xlink="http://www.w3.org/1999/xlink" x="0px" y="0px"
	 viewBox="0 0 23.3 19.4" enable-background="new 0 0 23.3 19.4" xml:space="preserve">
<g>
	<path d="M23.3,18.5c0,0.5-0.4,1-1,1H1c-0.5,0-1-0.4-1-1v-7.3c0-0.5,0.2-1.4,0.4-1.9L4,0.9C4.2,0.4,4.8,0,5.3,0H18
		c0.5,0,1.1,0.4,1.4,0.9l3.6,8.4c0.2,0.5,0.4,1.3,0.4,1.9V18.5z M20.3,10.7c0-0.1,0-0.2-0.1-0.2L17,2.9H6.3l-3.2,7.5
		c0,0.1,0,0.2-0.1,0.2h4.8l1.4,2.9h4.9l1.4-2.9H20.3z"/>
</g>
</svg>
