<?xml version="1.0" encoding="utf-8"?>
<!-- Generator: Adobe Illustrator 17.1.0, SVG Export Plug-In . SVG Version: 6.00 Build 0)  -->
<!DOCTYPE svg PUBLIC "-//W3C//DTD SVG 1.1//EN" "http://www.w3.org/Graphics/SVG/1.1/DTD/svg11.dtd">
<svg version="1.1" id="Layer_1" xmlns="http://www.w3.org/2000/svg" xmlns:xlink="http://www.w3.org/1999/xlink" x="0px" y="0px"
	 viewBox="0 0 25.3 27.2" enable-background="new 0 0 25.3 27.2" xml:space="preserve">
<g>
	<path d="M25.3,25.3c0,1.1-0.9,1.9-1.9,1.9H2c-1.1,0-1.9-0.9-1.9-1.9V5.8C0,4.8,0.9,3.9,2,3.9h1.9V2.4C3.9,1.1,5,0,6.3,0h1
		c1.3,0,2.4,1.1,2.4,2.4v1.5h5.8V2.4C15.6,1.1,16.7,0,18,0h1c1.3,0,2.4,1.1,2.4,2.4v1.5h1.9c1.1,0,1.9,0.9,1.9,1.9V25.3z M6.3,14.1
		V9.7H2v4.4H6.3z M6.3,19.9v-4.9H2v4.9H6.3z M6.3,25.3v-4.4H2v4.4H6.3z M7.8,2.4c0-0.3-0.2-0.5-0.5-0.5h-1c-0.3,0-0.5,0.2-0.5,0.5
		v4.4c0,0.3,0.2,0.5,0.5,0.5h1c0.3,0,0.5-0.2,0.5-0.5V2.4z M12.2,14.1V9.7H7.3v4.4H12.2z M12.2,19.9v-4.9H7.3v4.9H12.2z M12.2,25.3
		v-4.4H7.3v4.4H12.2z M18,14.1V9.7h-4.9v4.4H18z M18,19.9v-4.9h-4.9v4.9H18z M18,25.3v-4.4h-4.9v4.4H18z M19.4,2.4
		c0-0.3-0.2-0.5-0.5-0.5h-1c-0.3,0-0.5,0.2-0.5,0.5v4.4c0,0.3,0.2,0.5,0.5,0.5h1c0.3,0,0.5-0.2,0.5-0.5V2.4z M23.3,14.1V9.7H19v4.4
		H23.3z M23.3,19.9v-4.9H19v4.9H23.3z M23.3,25.3v-4.4H19v4.4H23.3z"/>
</g>
</svg>
