<?xml version="1.0" encoding="utf-8"?>
<!-- Generator: Adobe Illustrator 17.1.0, SVG Export Plug-In . SVG Version: 6.00 Build 0)  -->
<!DOCTYPE svg PUBLIC "-//W3C//DTD SVG 1.1//EN" "http://www.w3.org/Graphics/SVG/1.1/DTD/svg11.dtd">
<svg version="1.1" id="Layer_1" xmlns="http://www.w3.org/2000/svg" xmlns:xlink="http://www.w3.org/1999/xlink" x="0px" y="0px"
	 viewBox="0 0 23.3 23.4" enable-background="new 0 0 23.3 23.4" xml:space="preserve">
<g>
	<path d="M11.7,23.4C5.2,23.4,0,18.2,0,11.7C0,5.2,5.2,0,11.7,0c6.4,0,11.7,5.2,11.7,11.7C23.3,18.2,18.1,23.4,11.7,23.4z M16.2,4.8
		c-1.3-0.9-2.9-1.4-4.6-1.4c-4.6,0-8.3,3.7-8.3,8.3c0,1.7,0.5,3.2,1.4,4.5L16.2,4.8z M18.6,7.2L7.2,18.6C8.5,19.5,10,20,11.7,20
		c4.6,0,8.3-3.7,8.3-8.3C19.9,10,19.4,8.5,18.6,7.2z"/>
</g>
</svg>
