<?xml version="1.0" encoding="utf-8"?>
<!-- Generator: Adobe Illustrator 17.1.0, SVG Export Plug-In . SVG Version: 6.00 Build 0)  -->
<!DOCTYPE svg PUBLIC "-//W3C//DTD SVG 1.1//EN" "http://www.w3.org/Graphics/SVG/1.1/DTD/svg11.dtd">
<svg version="1.1" id="Layer_1" xmlns="http://www.w3.org/2000/svg" xmlns:xlink="http://www.w3.org/1999/xlink" x="0px" y="0px"
	 viewBox="0 0 25.3 23.3" enable-background="new 0 0 25.3 23.3" xml:space="preserve">
<g>
	<g>
		<path d="M25.3,21.9c0,0.8-0.7,1.5-1.5,1.5H1.5c-0.8,0-1.5-0.7-1.5-1.5V17c0-0.8,0.7-1.5,1.5-1.5h7.1l2.1,2.1
			c0.6,0.5,1.3,0.9,2.1,0.9c0.8,0,1.5-0.3,2.1-0.9l2.1-2.1h7c0.8,0,1.5,0.7,1.5,1.5V21.9z M20.1,9.5l-6.8,6.8
			c-0.2,0.2-0.4,0.3-0.7,0.3c-0.2,0-0.5-0.1-0.7-0.3L5.2,9.5C4.9,9.2,4.8,8.8,4.9,8.4C5.1,8,5.4,7.8,5.8,7.8h3.9V1c0-0.5,0.4-1,1-1
			h3.9c0.5,0,1,0.4,1,1v6.8h3.9c0.4,0,0.7,0.2,0.9,0.6C20.5,8.8,20.4,9.2,20.1,9.5z"/>
	</g>
</g>
</svg>
