<?xml version="1.0" encoding="utf-8"?>
<!-- Generator: Adobe Illustrator 17.1.0, SVG Export Plug-In . SVG Version: 6.00 Build 0)  -->
<!DOCTYPE svg PUBLIC "-//W3C//DTD SVG 1.1//EN" "http://www.w3.org/Graphics/SVG/1.1/DTD/svg11.dtd">
<svg version="1.1" id="Layer_1" xmlns="http://www.w3.org/2000/svg" xmlns:xlink="http://www.w3.org/1999/xlink" x="0px" y="0px"
	 viewBox="0 0 32.2 30" enable-background="new 0 0 32.2 30" xml:space="preserve">
<g>
	<path fill="none" d="M14.6,9.7h-3.9c-0.5,0-1,0.4-1,1s0.4,1,1,1h3.9c0.5,0,1-0.4,1-1S15.1,9.7,14.6,9.7z"/>
	<path d="M22.3,17.6v-2c0-1,0.7-1.9,1.6-2.3h0.4V7.8c0-0.5-0.4-1-1-1H1.9c-0.5,0-1,0.4-1,1v14.6c0,0.5,0.4,1,1,1h14V20
		c0-1.3,1.1-2.4,2.4-2.4H22.3z M14.6,11.7h-3.9c-0.5,0-1-0.4-1-1s0.4-1,1-1h3.9c0.5,0,1,0.4,1,1S15.1,11.7,14.6,11.7z"/>
	<path d="M24.3,5.8c0.5,0,1-0.4,1-1V1c0-0.5-0.4-1-1-1H1C0.4,0,0,0.4,0,1v3.9c0,0.5,0.4,1,1,1H24.3z"/>
	<path d="M32,21.9l-6.7-6.7c-0.1-0.1-0.3-0.2-0.6-0.2c-0.4,0-0.8,0.4-0.8,0.8v3.6h-5.6c-0.4,0-0.8,0.4-0.8,0.8v4.8
		c0,0.4,0.4,0.8,0.8,0.8h5.6v3.6c0,0.4,0.4,0.8,0.8,0.8c0.2,0,0.4-0.1,0.6-0.2L32,23c0.1-0.1,0.2-0.3,0.2-0.6
		C32.2,22.2,32.1,22,32,21.9z"/>
</g>
</svg>
