<?xml version="1.0" encoding="utf-8"?>
<!-- Generator: Adobe Illustrator 17.1.0, SVG Export Plug-In . SVG Version: 6.00 Build 0)  -->
<!DOCTYPE svg PUBLIC "-//W3C//DTD SVG 1.1//EN" "http://www.w3.org/Graphics/SVG/1.1/DTD/svg11.dtd">
<svg version="1.1" id="Layer_1" xmlns="http://www.w3.org/2000/svg" xmlns:xlink="http://www.w3.org/1999/xlink" x="0px" y="0px"
	 viewBox="0 0 29.7 32" enable-background="new 0 0 29.7 32" xml:space="preserve">
<g>
	<path d="M9.6,5.1h2.9V0H1.3C0.6,0,0,0.6,0,1.3v22.3C0,24.4,0.6,25,1.3,25h5V8.3C6.4,6.5,7.8,5.1,9.6,5.1z"/>
	<path d="M14.8,0.9c-0.1-0.1-0.3-0.3-0.5-0.4v4.5h4.6L14.8,0.9z"/>
	<path d="M29.7,30.7V15.9h-7.6c-0.7,0-1.3-0.6-1.3-1.3V7H9.6C8.9,7,8.3,7.6,8.3,8.3v22.3c0,0.7,0.6,1.3,1.3,1.3h18.8
		C29.1,32,29.7,31.4,29.7,30.7z"/>
	<path d="M22.6,7.5v6.6h6.6c-0.1-0.2-0.3-0.4-0.4-0.5l-5.7-5.7C22.9,7.8,22.8,7.7,22.6,7.5z"/>
</g>
</svg>
