<?xml version="1.0" encoding="utf-8"?>
<!-- Generator: Adobe Illustrator 17.1.0, SVG Export Plug-In . SVG Version: 6.00 Build 0)  -->
<!DOCTYPE svg PUBLIC "-//W3C//DTD SVG 1.1//EN" "http://www.w3.org/Graphics/SVG/1.1/DTD/svg11.dtd">
<svg version="1.1" id="Layer_1" xmlns="http://www.w3.org/2000/svg" xmlns:xlink="http://www.w3.org/1999/xlink" x="0px" y="0px"
	 viewBox="0 0 29.2 27.2" enable-background="new 0 0 29.2 27.2" xml:space="preserve">
<g>
	<path d="M5,15.6h-2c-1.5,0-2.9-0.7-2.9-2.4c0-1.2,0-5.4,1.9-5.4c0.3,0,1.9,1.3,3.9,1.3c0.7,0,1.4-0.1,2-0.3c0,0.3-0.1,0.7-0.1,1
		c0,1.4,0.4,2.7,1.2,3.9C7.4,13.7,6,14.3,5,15.6z M5.8,7.8C3.7,7.8,1.9,6,1.9,3.9S3.7,0,5.8,0C8,0,9.7,1.7,9.7,3.9S8,7.8,5.8,7.8z
		 M21.2,27.2H7.9c-2.4,0-4.1-1.5-4.1-3.9c0-3.4,0.8-8.7,5.3-8.7c0.5,0,2.4,2.1,5.4,2.1c3,0,4.9-2.1,5.4-2.1c4.5,0,5.3,5.3,5.3,8.7
		C25.3,25.7,23.6,27.2,21.2,27.2z M14.6,15.6c-3.2,0-5.8-2.6-5.8-5.8s2.6-5.8,5.8-5.8c3.2,0,5.8,2.6,5.8,5.8S17.8,15.6,14.6,15.6z
		 M23.3,7.8c-2.1,0-3.9-1.7-3.9-3.9S21.2,0,23.3,0c2.1,0,3.9,1.7,3.9,3.9S25.5,7.8,23.3,7.8z M26.2,15.6h-2c-1-1.2-2.4-1.9-4-1.9
		c0.8-1.1,1.2-2.5,1.2-3.9c0-0.3,0-0.7-0.1-1c0.7,0.2,1.3,0.3,2,0.3c2,0,3.6-1.3,3.9-1.3c1.9,0,1.9,4.1,1.9,5.4
		C29.2,14.8,27.7,15.6,26.2,15.6z"/>
</g>
</svg>
