<?xml version="1.0" encoding="utf-8"?>
<!-- Generator: Adobe Illustrator 17.1.0, SVG Export Plug-In . SVG Version: 6.00 Build 0)  -->
<!DOCTYPE svg PUBLIC "-//W3C//DTD SVG 1.1//EN" "http://www.w3.org/Graphics/SVG/1.1/DTD/svg11.dtd">
<svg version="1.1" id="Layer_1" xmlns="http://www.w3.org/2000/svg" xmlns:xlink="http://www.w3.org/1999/xlink" x="0px" y="0px"
	 viewBox="0 0 16.2 19.4" enable-background="new 0 0 16.2 19.4" xml:space="preserve">
<g>
	<path d="M15.6,4.5l-3.9-3.9c-0.1-0.1-0.2-0.2-0.3-0.3v4.5h4.5C15.7,4.7,15.6,4.6,15.6,4.5z"/>
	<path d="M11,6.1c-0.5,0-0.9-0.4-0.9-0.9V0H2.5C2,0,1.6,0.4,1.6,0.9V11c-1,0.9-1.6,2.2-1.6,3.6c0,2.7,2.2,4.8,4.8,4.8
		c1.8,0,3.3-1,4.1-2.4h6.3c0.5,0,0.9-0.4,0.9-0.9v-10H11z M4.8,18.5c-2.2,0-4-1.8-4-4s1.8-4,4-4s4,1.8,4,4S7,18.5,4.8,18.5z"/>
	<path d="M8,14.6c0-1.8-1.4-3.2-3.2-3.2s-3.2,1.4-3.2,3.2c0,1.8,1.4,3.2,3.2,3.2S8,16.3,8,14.6z M3.3,14.7c0-0.1,0.1-0.2,0.2-0.2
		h1.3v-2.1c0-0.1,0.1-0.2,0.2-0.2h0.4c0.1,0,0.2,0.1,0.2,0.2v2.6c0,0.1-0.1,0.2-0.2,0.2H3.5c-0.1,0-0.2-0.1-0.2-0.2V14.7z"/>
	<path fill="#FFFFFF" d="M3.5,15.3h1.9c0.1,0,0.2-0.1,0.2-0.2v-2.6c0-0.1-0.1-0.2-0.2-0.2H5c-0.1,0-0.2,0.1-0.2,0.2v2.1H3.5
		c-0.1,0-0.2,0.1-0.2,0.2v0.4C3.3,15.2,3.4,15.3,3.5,15.3z"/>
	<path fill="#FFFFFF" d="M4.8,10.6c-2.2,0-4,1.8-4,4s1.8,4,4,4s4-1.8,4-4S7,10.6,4.8,10.6z M4.8,17.8c-1.8,0-3.2-1.4-3.2-3.2
		c0-1.8,1.4-3.2,3.2-3.2S8,12.8,8,14.6C8,16.3,6.6,17.8,4.8,17.8z"/>
</g>
</svg>
