<?xml version="1.0" encoding="utf-8"?>
<!-- Generator: Adobe Illustrator 17.1.0, SVG Export Plug-In . SVG Version: 6.00 Build 0)  -->
<!DOCTYPE svg PUBLIC "-//W3C//DTD SVG 1.1//EN" "http://www.w3.org/Graphics/SVG/1.1/DTD/svg11.dtd">
<svg version="1.1" id="Layer_1" xmlns="http://www.w3.org/2000/svg" xmlns:xlink="http://www.w3.org/1999/xlink" x="0px" y="0px"
	 viewBox="0 0 27.2 21.4" enable-background="new 0 0 27.2 21.4" xml:space="preserve">
<g>
	<path d="M27.2,19c0,1.3-1.1,2.4-2.4,2.4H2.4C1.1,21.4,0,20.3,0,19V2.4C0,1.1,1.1,0,2.4,0h22.4c1.3,0,2.4,1.1,2.4,2.4V19z M25.3,6.3
		c0-0.3-0.2-0.5-0.5-0.5H2.4C2.2,5.8,2,6.1,2,6.3V19c0,0.3,0.2,0.5,0.5,0.5h22.4c0.3,0,0.5-0.2,0.5-0.5V6.3z M5.8,9.2
		c0,0.3-0.2,0.5-0.5,0.5h-1c-0.3,0-0.5-0.2-0.5-0.5v-1c0-0.3,0.2-0.5,0.5-0.5h1c0.3,0,0.5,0.2,0.5,0.5V9.2z M5.8,13.1
		c0,0.3-0.2,0.5-0.5,0.5h-1c-0.3,0-0.5-0.2-0.5-0.5v-1c0-0.3,0.2-0.5,0.5-0.5h1c0.3,0,0.5,0.2,0.5,0.5V13.1z M5.8,17
		c0,0.3-0.2,0.5-0.5,0.5h-1c-0.3,0-0.5-0.2-0.5-0.5v-1c0-0.3,0.2-0.5,0.5-0.5h1c0.3,0,0.5,0.2,0.5,0.5V17z M23.3,9.2
		c0,0.3-0.2,0.5-0.5,0.5H8.3C8,9.7,7.8,9.5,7.8,9.2v-1C7.8,8,8,7.8,8.3,7.8h14.6c0.3,0,0.5,0.2,0.5,0.5V9.2z M23.3,13.1
		c0,0.3-0.2,0.5-0.5,0.5H8.3c-0.3,0-0.5-0.2-0.5-0.5v-1c0-0.3,0.2-0.5,0.5-0.5h14.6c0.3,0,0.5,0.2,0.5,0.5V13.1z M23.3,17
		c0,0.3-0.2,0.5-0.5,0.5H8.3c-0.3,0-0.5-0.2-0.5-0.5v-1c0-0.3,0.2-0.5,0.5-0.5h14.6c0.3,0,0.5,0.2,0.5,0.5V17z"/>
</g>
</svg>
