<?xml version="1.0" encoding="utf-8"?>
<!-- Generator: Adobe Illustrator 17.1.0, SVG Export Plug-In . SVG Version: 6.00 Build 0)  -->
<!DOCTYPE svg PUBLIC "-//W3C//DTD SVG 1.1//EN" "http://www.w3.org/Graphics/SVG/1.1/DTD/svg11.dtd">
<svg version="1.1" id="Layer_1" xmlns="http://www.w3.org/2000/svg" xmlns:xlink="http://www.w3.org/1999/xlink" x="0px" y="0px"
	 viewBox="0 0 27.2 17.5" enable-background="new 0 0 27.2 17.5" xml:space="preserve">
<g>
	<path d="M26.9,9.8c-2.8,4.6-7.9,7.7-13.3,7.7S3.1,14.4,0.3,9.8C0.1,9.5,0,9.1,0,8.7s0.1-0.7,0.3-1C3.1,3.1,8.2,0,13.6,0
		s10.5,3.1,13.3,7.7c0.2,0.3,0.3,0.7,0.3,1S27.1,9.5,26.9,9.8z M19.5,3.4c0.6,1,0.9,2.2,0.9,3.4c0,3.8-3.1,6.8-6.8,6.8
		s-6.8-3.1-6.8-6.8c0-1.2,0.3-2.4,0.9-3.4C5.4,4.6,3.4,6.5,2,8.7c2.6,4,6.8,6.8,11.7,6.8s9.1-2.8,11.7-6.8
		C23.8,6.5,21.9,4.6,19.5,3.4z"/>
</g>
</svg>
