<?xml version="1.0" encoding="utf-8"?>
<!-- Generator: Adobe Illustrator 17.1.0, SVG Export Plug-In . SVG Version: 6.00 Build 0)  -->
<!DOCTYPE svg PUBLIC "-//W3C//DTD SVG 1.1//EN" "http://www.w3.org/Graphics/SVG/1.1/DTD/svg11.dtd">
<svg version="1.1" id="Layer_1" xmlns="http://www.w3.org/2000/svg" xmlns:xlink="http://www.w3.org/1999/xlink" x="0px" y="0px"
	 viewBox="0 0 21.4 23.3" enable-background="new 0 0 21.4 23.3" xml:space="preserve">
<g>
	<path d="M21.4,5.3c0,0.3-0.2,0.5-0.5,0.5h-1.5v14.4c0,1.7-1.1,3.1-2.4,3.1H4.4C3,23.3,2,22,2,20.3V5.8H0.5C0.2,5.8,0,5.6,0,5.3v-1
		c0-0.3,0.2-0.5,0.5-0.5h4.7l1.1-2.5C6.6,0.6,7.5,0,8.3,0h4.9c0.8,0,1.7,0.6,2,1.4l1.1,2.5h4.7c0.3,0,0.5,0.2,0.5,0.5V5.3z M7.8,8.3
		c0-0.3-0.2-0.5-0.5-0.5h-1C6.1,7.8,5.8,8,5.8,8.3V19c0,0.3,0.2,0.5,0.5,0.5h1c0.3,0,0.5-0.2,0.5-0.5V8.3z M14.1,3.9l-0.7-1.8
		c0-0.1-0.2-0.2-0.3-0.2H8.3C8.2,2,8.1,2,8,2.1L7.3,3.9H14.1z M11.7,8.3c0-0.3-0.2-0.5-0.5-0.5h-1C9.9,7.8,9.7,8,9.7,8.3V19
		c0,0.3,0.2,0.5,0.5,0.5h1c0.3,0,0.5-0.2,0.5-0.5V8.3z M15.6,8.3c0-0.3-0.2-0.5-0.5-0.5h-1c-0.3,0-0.5,0.2-0.5,0.5V19
		c0,0.3,0.2,0.5,0.5,0.5h1c0.3,0,0.5-0.2,0.5-0.5V8.3z"/>
</g>
</svg>
